<?xml version="1.0" encoding="UTF-8" standalone="no"?>
<!-- Created with Inkscape (http://www.inkscape.org/) -->

<svg
   xmlns:dc="http://purl.org/dc/elements/1.1/"
   xmlns:cc="http://creativecommons.org/ns#"
   xmlns:rdf="http://www.w3.org/1999/02/22-rdf-syntax-ns#"
   xmlns:svg="http://www.w3.org/2000/svg"
   xmlns="http://www.w3.org/2000/svg"
   xmlns:sodipodi="http://sodipodi.sourceforge.net/DTD/sodipodi-0.dtd"
   xmlns:inkscape="http://www.inkscape.org/namespaces/inkscape"
   width="1052.3622"
   height="744.09448"
   id="svg4307"
   version="1.1"
   inkscape:version="0.48.3.1 r9886"
   sodipodi:docname="poster_2.svg">
  <defs
     id="defs4309" />
  <sodipodi:namedview
     id="base"
     pagecolor="#ffffff"
     bordercolor="#666666"
     borderopacity="1.0"
     inkscape:pageopacity="0.0"
     inkscape:pageshadow="2"
     inkscape:zoom="0.49497475"
     inkscape:cx="601.72329"
     inkscape:cy="275.0204"
     inkscape:document-units="px"
     inkscape:current-layer="layer1"
     showgrid="false"
     showguides="true"
     inkscape:guide-bbox="true"
     inkscape:window-width="1364"
     inkscape:window-height="747"
     inkscape:window-x="0"
     inkscape:window-y="19"
     inkscape:window-maximized="0" />
  <metadata
     id="metadata4312">
    <rdf:RDF>
      <cc:Work
         rdf:about="">
        <dc:format>image/svg+xml</dc:format>
        <dc:type
           rdf:resource="http://purl.org/dc/dcmitype/StillImage" />
        <dc:title></dc:title>
      </cc:Work>
    </rdf:RDF>
  </metadata>
  <g
     inkscape:label="Layer 1"
     inkscape:groupmode="layer"
     id="layer1"
     transform="translate(0,-308.2677)">
    <g
       id="g4218"
       inkscape:export-filename="/home/yogesh/FSFTN_stuff/poster_2.png"
       inkscape:export-xdpi="90"
       inkscape:export-ydpi="90">
      <rect
         transform="matrix(0,1,-1,0,0,0)"
         y="-1050.4668"
         x="306.02924"
         height="1048.5714"
         width="748.57141"
         id="rect4315"
         style="fill:#f9f9f9;fill-opacity:1;stroke:#000000" />
      <text
         sodipodi:linespacing="125%"
         id="text3115"
         y="389.60205"
         x="525.91742"
         style="font-size:40px;font-style:normal;font-variant:normal;font-weight:normal;font-stretch:normal;text-align:center;line-height:125%;letter-spacing:0px;word-spacing:0px;text-anchor:middle;fill:#999999;fill-opacity:1;stroke:none;font-family:Open Sans;-inkscape-font-specification:Open Sans"
         xml:space="preserve"><tspan
           y="389.60205"
           x="525.91742"
           id="tspan3117"
           sodipodi:role="line">FIVE-DAY INDUSTRIAL TRAINING</tspan><tspan
           id="tspan3119"
           y="439.60205"
           x="525.91742"
           sodipodi:role="line">ON FREE SOFTWARE TECHNOLOGIES</tspan></text>
      <g
         transform="translate(2.3544617,0)"
         id="g4073">
        <g
           id="g3121"
           transform="translate(17.060297,-18.354523)">
          <text
             sodipodi:linespacing="125%"
             id="text4331"
             y="554.07648"
             x="435.72864"
             style="font-size:12px;font-style:normal;font-variant:normal;font-weight:bold;font-stretch:normal;text-align:center;line-height:125%;letter-spacing:0px;word-spacing:0px;text-anchor:middle;fill:#999999;fill-opacity:1;stroke:none;font-family:Open Sans;-inkscape-font-specification:Open Sans Bold"
             xml:space="preserve"><tspan
               y="554.07648"
               x="435.72864"
               id="tspan4333"
               sodipodi:role="line">DAY 1</tspan><tspan
               id="tspan4335"
               y="569.07648"
               x="435.72864"
               sodipodi:role="line">GNU / LINUX</tspan></text>
          <text
             xml:space="preserve"
             style="font-size:12px;font-style:normal;font-variant:normal;font-weight:bold;font-stretch:normal;text-align:center;line-height:125%;letter-spacing:0px;word-spacing:0px;text-anchor:middle;fill:#999999;fill-opacity:1;stroke:none;font-family:Open Sans;-inkscape-font-specification:Open Sans Bold"
             x="575.67938"
             y="554.12042"
             id="text4337"
             sodipodi:linespacing="125%"><tspan
               sodipodi:role="line"
               id="tspan4339"
               x="575.67938"
               y="554.12042">DAY 2</tspan><tspan
               sodipodi:role="line"
               x="575.67938"
               y="569.12042"
               id="tspan4341">SCRIPTING &amp; NETSEC</tspan></text>
          <text
             sodipodi:linespacing="125%"
             id="text4343"
             y="821.79077"
             x="365.10797"
             style="font-size:12px;font-style:normal;font-variant:normal;font-weight:bold;font-stretch:normal;text-align:center;line-height:125%;letter-spacing:0px;word-spacing:0px;text-anchor:middle;fill:#999999;fill-opacity:1;stroke:none;font-family:Open Sans;-inkscape-font-specification:Open Sans Bold"
             xml:space="preserve"><tspan
               y="821.79077"
               x="365.10797"
               id="tspan4345"
               sodipodi:role="line">DAY 3</tspan><tspan
               id="tspan4347"
               y="836.79077"
               x="365.10797"
               sodipodi:role="line">WEB TECH:</tspan><tspan
               id="tspan4361"
               y="851.79077"
               x="365.10797"
               sodipodi:role="line">BEGINNERS</tspan></text>
          <text
             xml:space="preserve"
             style="font-size:12px;font-style:normal;font-variant:normal;font-weight:bold;font-stretch:normal;text-align:center;line-height:125%;letter-spacing:0px;word-spacing:0px;text-anchor:middle;fill:#999999;fill-opacity:1;stroke:none;font-family:Open Sans;-inkscape-font-specification:Open Sans Bold"
             x="506.53653"
             y="821.79077"
             id="text4349"
             sodipodi:linespacing="125%"><tspan
               sodipodi:role="line"
               id="tspan4351"
               x="506.53653"
               y="821.79077">DAY 3</tspan><tspan
               sodipodi:role="line"
               x="506.53653"
               y="836.79077"
               id="tspan4353">WEB TECH:</tspan><tspan
               id="tspan4363"
               sodipodi:role="line"
               x="506.53653"
               y="851.79077">ADVANCED</tspan></text>
          <text
             sodipodi:linespacing="125%"
             id="text4355"
             y="821.70288"
             x="645.82227"
             style="font-size:12px;font-style:normal;font-variant:normal;font-weight:bold;font-stretch:normal;text-align:center;line-height:125%;letter-spacing:0px;word-spacing:0px;text-anchor:middle;fill:#999999;fill-opacity:1;stroke:none;font-family:Open Sans;-inkscape-font-specification:Open Sans Bold"
             xml:space="preserve"><tspan
               y="821.70288"
               x="645.82227"
               id="tspan4357"
               sodipodi:role="line">DAY 5</tspan><tspan
               id="tspan4359"
               y="836.70288"
               x="645.82227"
               sodipodi:role="line">COLLABORATIVE</tspan><tspan
               id="tspan4365"
               y="851.70288"
               x="645.82227"
               sodipodi:role="line">COMPUTING</tspan></text>
          <path
             transform="matrix(0.22691897,0,0,0.22691897,588.43131,654.74348)"
             d="M -451.08562,51.00583 -671.42859,178.2209 -891.77156,51.005828 l 0,-254.430148 220.34297,-127.21507 220.34297,127.21507 z"
             inkscape:randomized="0"
             inkscape:rounded="0"
             inkscape:flatsided="true"
             sodipodi:arg2="1.0471976"
             sodipodi:arg1="0.52359878"
             sodipodi:r2="254.43015"
             sodipodi:r1="254.43015"
             sodipodi:cy="-76.209244"
             sodipodi:cx="-671.42859"
             sodipodi:sides="6"
             id="path4321"
             style="fill:#999999;fill-opacity:1"
             sodipodi:type="star" />
          <path
             inkscape:connector-curvature="0"
             id="path4130"
             d="m 425.75868,666.78354 c -3.27243,-0.843 -6.29285,-2.54641 -9.68855,-2.97981 -2.47286,-0.31789 -6.51259,-1.20919 -4.41423,-4.5095 0.3683,-2.3507 -1.78246,-7.19651 2.58646,-6.4434 2.22267,1.04561 2.69958,-3.51492 3.51381,-2.52751 0.34278,3.18122 -2.87754,3.66592 -5.25042,3.25881 -0.92991,2.1406 2.21385,5.2359 -0.50094,7.3741 0.71283,1.9367 4.32293,1.50811 6.22449,2.38761 2.74435,0.51389 5.40804,1.6522 8.21453,1.6917 3.02055,-0.3672 3.10714,-4.52161 1.62591,-6.50831 -2.23323,-3.3502 -4.17728,-7.0254 -7.18719,-9.7586 -1.19909,-1.17161 -3.7636,1.06369 -3.03528,-1.82961 -0.16685,-2.20005 1.63244,-3.92225 2.27147,-5.92895 1.1072,-2.86541 2.10357,-5.8314 4.20498,-8.15701 1.13923,-1.7565 2.5919,-3.4168 3.48175,-5.28309 0.09,-4.80604 -0.93684,-9.69894 0.11333,-14.44564 0.74205,-3.5224 4.47658,-5.3591 7.84131,-5.03071 4.17675,-0.19319 8.68328,2.6054 9.0761,7.02941 0.64355,4.14811 0.0411,8.70304 2.51549,12.36093 2.25028,4.67731 6.53516,8.22711 7.74058,13.42661 0.4722,2.5815 1.62599,5.42895 0.52061,7.98725 -1.49173,1.9689 -3.68732,4.58521 -6.46129,3.92801 -2.03852,-0.19791 -1.8817,-4.95861 -3.91248,-2.38481 -1.02411,3.19741 0.95765,6.44701 0.10894,9.68492 -1.04948,2.55629 1.20664,5.66899 4.01145,4.69169 2.39497,-1.12179 4.12458,-3.47199 6.82752,-4.0349 2.02733,-0.12864 6.41416,-2.97659 2.56585,-4.1212 -2.54162,0 -3.8512,-3.95561 -2.36481,-5.36961 -0.27647,3.21921 2.98304,4.35971 4.68336,6.35452 -0.0283,2.67699 -3.67137,3.3202 -5.57557,4.5575 -2.3782,0.96629 -3.66697,3.5369 -6.06349,4.3759 -2.91847,1.008 -5.06876,-1.07691 -6.83337,-2.7033 -3.79431,-0.017 -7.65845,-0.402 -11.40959,0.2783 -2.08122,0.37429 -3.16013,3.0192 -5.4308,2.6287 z m 5.31538,-3.96681 c 1.73317,-1.20939 -2.48532,-4.87329 0.42156,-3.3367 2.41531,1.64231 5.81183,0.91861 8.3803,-0.042 1.35153,-0.39359 3.66153,-4.76279 3.69022,-1.3197 -0.24207,0.99201 -1.51852,5.20421 0.0512,4.41601 0.84926,-4.1207 0.492,-8.3556 0.81438,-12.50762 0.64853,-1.55929 2.69371,-0.5244 2.8355,-2.4497 1.34838,-1.25561 3.681,-0.2644 4.81769,-0.10576 -3.09111,-1.002 -0.76052,-3.79315 -1.27822,-6.13345 -0.40089,-2.89689 -1.8681,-5.7382 -3.99867,-7.74281 -2.02679,-1.64389 2.4784,3.8747 1.3432,2.72061 1.67681,2.7462 2.83302,6.3488 1.49017,9.4471 -1.4223,2.16135 -3.67669,0.24578 -2.83255,-1.8788 0.25256,-3.1587 -0.98465,-6.12771 -2.60511,-8.76591 -0.87894,-2.6438 -1.69911,-5.3239 -3.42709,-7.56779 -0.36385,-2.01091 1.31526,-4.92604 -2.0606,-5.02484 -3.37552,0.02 -2.43401,-5.82021 0.63244,-3.7391 1.08834,0.8075 -0.61224,4.44251 1.57541,2.8154 0.83235,-2.5084 -1.0111,-6.4804 -4.12221,-5.0859 -2.12496,0.5915 -0.56235,4.3547 -1.94587,4.3974 -3.54081,1.03111 -0.95791,-5.21251 -4.6919,-4.11981 -1.8753,0.66941 -1.56301,5.84631 0.13561,5.11352 -0.54396,-0.71501 -1.82318,-4.10021 0.86461,-3.4533 3.50802,2.718 -3.71601,4.17409 -1.68046,6.46493 1.71149,2.62639 5.0602,1.58479 7.48548,0.6375 0.95448,-0.27641 4.13473,-2.23231 2.25579,-0.30361 -2.48702,0.74011 -4.75216,2.4632 -7.47019,2.033 -2.25317,0.1 1.965,2.3224 2.93511,1.09101 1.43017,0.0189 4.37228,-3.03042 4.82076,-1.32791 -2.66556,0.8086 -4.46667,4.11261 -7.37828,3.67561 -1.51285,-0.57651 -2.85961,-5.02501 -3.38311,-1.4757 -1.83956,2.23679 -1.20941,5.2147 -2.4547,7.5302 -1.94829,3.09851 -2.82399,6.782 -2.63487,10.42765 -1.78271,1.30409 -2.95179,-3.36305 -2.04403,-4.89225 -0.15217,-1.4946 -1.26017,3.08079 -0.40365,3.94078 1.09756,2.58737 3.70496,4.08687 5.68046,5.95958 1.59399,1.1505 5.1981,3.55981 2.44243,5.4516 -1.95785,0.7008 1.32286,2.3867 1.22489,3.72581 0.62597,0.46719 -0.57951,2.8977 0.51482,1.4252 l 0,0 z m 0.75667,-40.74039 c -0.46459,-1.15972 2.31262,-0.80541 0,0 z m 3.149,-0.30302 c -1.53527,-1.2712 2.11205,0.2445 0,0 z m -11.4745,15.47544 c 1.21499,-0.737 0.20934,-2.4237 -0.14515,-0.50139 -0.66712,0.5198 -0.69291,1.51709 0.14515,0.50139 z m 21.41069,-9.52449 c 1.0097,-1.4117 -3.45886,-3.22741 -1.50504,-0.77031 0.27888,0.2915 1.1152,1.4397 1.50504,0.77031 z m -13.48675,-7.16304 c 0.27275,-1.58259 -1.45294,-2.0512 -0.27512,-0.308 -0.21149,0.0789 0.18792,0.6335 0.27512,0.308 z m 7.77114,-0.14727 c 0.80805,-1.5082 -2.48309,-2.1766 -0.37779,-0.6214 0.20732,0.093 -0.0242,0.8142 0.37779,0.6214 z m 0.40023,-7.5025 c 2.2607,0.20579 1.04841,-1.979 -0.26967,-1.43641 0.14182,0.55691 -1.31942,2.44491 0.26967,1.43641 z"
             style="fill:#ffffff;fill-opacity:1" />
          <g
             id="g4691">
            <path
               transform="matrix(0.22691897,0,0,0.22691897,728.43131,654.74348)"
               d="M -451.08562,51.00583 -671.42859,178.2209 -891.77156,51.005828 l 0,-254.430148 220.34297,-127.21507 220.34297,127.21507 z"
               inkscape:randomized="0"
               inkscape:rounded="0"
               inkscape:flatsided="true"
               sodipodi:arg2="1.0471976"
               sodipodi:arg1="0.52359878"
               sodipodi:r2="254.43015"
               sodipodi:r1="254.43015"
               sodipodi:cy="-76.209244"
               sodipodi:cx="-671.42859"
               sodipodi:sides="6"
               id="path4319"
               style="fill:#80b3ff;fill-opacity:1"
               sodipodi:type="star" />
            <path
               style="fill:#ffffff;fill-opacity:1;fill-rule:nonzero;stroke:none"
               d="m 576.08705,612.45016 c -5.88802,0 -10.75,4.83073 -10.75,10.71875 l 0,8.65625 -4.59375,0 0,30.625 30.65625,0 0,-30.625 -4.59375,0 0,-8.65625 c 0,-5.88802 -4.83073,-10.71875 -10.71875,-10.71875 z m 0,6.125 c 2.59915,0 4.59375,1.9946 4.59375,4.59375 l 0,8.65625 -9.1875,0 0,-8.65625 c 0,-2.59915 1.9946,-4.59375 4.59375,-4.59375 z m 0,25.125 c 2.03061,0 3.65625,1.65689 3.65625,3.6875 0,1.35685 -0.75022,2.55038 -1.84375,3.1875 l 0,5.84375 -3.65625,0 0,-5.84375 c -1.09896,-0.63571 -1.84375,-1.82655 -1.84375,-3.1875 0,-2.03061 1.65688,-3.6875 3.6875,-3.6875 z"
               id="path4154"
               inkscape:connector-curvature="0" />
          </g>
          <g
             id="g4695">
            <path
               transform="matrix(0.22691897,0,0,0.22691897,518.44543,761.38016)"
               d="M -451.08562,51.00583 -671.42859,178.2209 -891.77156,51.005828 l 0,-254.430148 220.34297,-127.21507 220.34297,127.21507 z"
               inkscape:randomized="0"
               inkscape:rounded="0"
               inkscape:flatsided="true"
               sodipodi:arg2="1.0471976"
               sodipodi:arg1="0.52359878"
               sodipodi:r2="254.43015"
               sodipodi:r1="254.43015"
               sodipodi:cy="-76.209244"
               sodipodi:cx="-671.42859"
               sodipodi:sides="6"
               id="path4323"
               style="fill:#5fd35f;fill-opacity:1"
               sodipodi:type="star" />
            <path
               style="fill:#ffffff;fill-opacity:1;stroke:none"
               d="m 351.69755,719.08684 0,39.86133 12.2656,-4.87675 6.25,15.01542 4.5833,-1.84808 -6.2239,-15.01542 11.901,-4.74842 -28.776,-28.38808 z"
               id="path4181"
               inkscape:connector-curvature="0" />
          </g>
          <g
             id="g4678">
            <path
               transform="matrix(0.22691897,0,0,0.22691897,658.43131,761.38016)"
               d="M -451.08562,51.00583 -671.42859,178.2209 -891.77156,51.005828 l 0,-254.430148 220.34297,-127.21507 220.34297,127.21507 z"
               inkscape:randomized="0"
               inkscape:rounded="0"
               inkscape:flatsided="true"
               sodipodi:arg2="1.0471976"
               sodipodi:arg1="0.52359878"
               sodipodi:r2="254.43015"
               sodipodi:r1="254.43015"
               sodipodi:cy="-76.209244"
               sodipodi:cx="-671.42859"
               sodipodi:sides="6"
               id="path4325"
               style="fill:#24221c;fill-opacity:1"
               sodipodi:type="star" />
            <path
               style="font-size:medium;font-style:normal;font-variant:normal;font-weight:normal;font-stretch:normal;text-indent:0;text-align:start;text-decoration:none;line-height:normal;letter-spacing:normal;word-spacing:normal;text-transform:none;direction:ltr;block-progression:tb;writing-mode:lr-tb;text-anchor:start;baseline-shift:baseline;color:#000000;fill:#ffffff;fill-opacity:1;stroke:none;stroke-width:32;marker:none;visibility:visible;display:inline;overflow:visible;enable-background:accumulate;font-family:Sans;-inkscape-font-specification:Sans"
               d="m 482.29753,756.88814 c -1.6348,1.63483 -1.6348,4.35017 0,5.98499 l 4.98755,4.98759 c 1.63486,1.63483 4.35015,1.63483 5.98501,0 l 13.30007,-13.30009 c 1.63486,-1.63483 1.63486,-4.35016 0,-5.985 l -1.04683,-1.04691 3.98999,-3.99 1.04688,1.04683 c 1.63486,1.63492 4.35015,1.63492 5.98501,0 l 13.30008,-13.3 c 1.63485,-1.63492 1.63485,-4.35025 0,-5.98508 l -4.98755,-4.9875 c -1.6348,-1.63484 -4.35015,-1.63484 -5.98501,0 l -13.30008,13.30008 c -1.63485,1.63483 -1.63485,4.35017 0,5.985 l 1.28064,1.28067 -3.98999,3.99 -1.28069,-1.28067 c -1.6348,-1.63483 -4.35015,-1.63483 -5.98501,0 l -13.30007,13.30009 z m 2.66002,2.65999 13.30009,-13.30008 c 0.20721,-0.20717 0.45779,-0.20717 0.665,0 l 1.28064,1.28067 -1.99502,1.995 c -0.92103,0.92109 -1.06933,2.25575 -0.33251,2.99258 0.73683,0.73676 2.0715,0.5885 2.99254,-0.3325 l 1.99501,-1.99508 1.04684,1.04691 c 0.20721,0.20717 0.20721,0.45775 0,0.665 l -13.30003,13.30009 c -0.20721,0.20717 -0.45779,0.20717 -0.66501,0 l -4.98755,-4.98758 c -0.2072,-0.20717 -0.2072,-0.45776 0,-0.66501 z m 23.27513,-23.27508 13.30008,-13.30008 c 0.20721,-0.20717 0.45779,-0.20717 0.665,0 l 4.9875,4.9875 c 0.20721,0.20725 0.20721,0.45783 0,0.665 l -13.30008,13.30008 c -0.20721,0.20725 -0.45773,0.20725 -0.66501,0 l -1.04682,-1.04683 1.99501,-1.995 c 0.92104,-0.92109 1.06934,-2.25575 0.33251,-2.9925 -0.73682,-0.73684 -2.0715,-0.58859 -2.99253,0.3325 l -1.99502,1.995 -1.28064,-1.28067 c -0.20721,-0.20725 -0.20721,-0.45783 0,-0.665 z"
               id="path4205"
               inkscape:connector-curvature="0" />
          </g>
          <g
             id="g4684">
            <path
               sodipodi:type="star"
               style="fill:#ff8080;fill-opacity:1"
               id="path4317"
               sodipodi:sides="6"
               sodipodi:cx="-671.42859"
               sodipodi:cy="-76.209244"
               sodipodi:r1="254.43015"
               sodipodi:r2="254.43015"
               sodipodi:arg1="0.52359878"
               sodipodi:arg2="1.0471976"
               inkscape:flatsided="true"
               inkscape:rounded="0"
               inkscape:randomized="0"
               d="M -451.08562,51.00583 -671.42859,178.2209 -891.77156,51.005828 l 0,-254.430148 220.34297,-127.21507 220.34297,127.21507 z"
               transform="matrix(0.22691897,0,0,0.22691897,798.08829,761.38016)" />
            <path
               inkscape:connector-curvature="0"
               id="path4243"
               d="m 627.39513,719.08684 0,4.1667 -2.5,0 0,2.5 -4.16672,0 0,3.3333 4.16672,0 0,3.3333 -4.16672,0 0,3.3334 4.16672,0 0,3.3333 -4.16672,0 0,3.3333 4.16672,0 0,3.3334 -4.16672,0 0,3.3333 4.16672,0 0,3.3333 -4.16672,0 0,3.3334 4.16672,0 0,3.3333 -4.16672,0 0,3.3333 4.16672,0 0,2.5 2.5,0 0,4.1667 3.3333,0 0,-4.1667 3.33329,0 0,4.1667 3.33336,0 0,-4.1667 3.33336,0 0,4.1667 3.33329,0 0,-4.1667 3.33336,0 0,4.1667 3.33329,0 0,-4.1667 3.33336,0 0,4.1667 3.33336,0 0,-4.1667 3.33329,0 0,4.1667 3.3333,0 0,-4.1667 2.5,0 0,-2.5 4.16672,0 0,-3.3333 -4.16672,0 0,-3.3333 4.16672,0 0,-3.3334 -4.16672,0 0,-3.3333 4.16672,0 0,-3.3333 -4.16672,0 0,-3.3334 4.16672,0 0,-3.3333 -4.16672,0 0,-3.3333 4.16672,0 0,-3.3334 -4.16672,0 0,-3.3333 4.16672,0 0,-3.3333 -4.16672,0 0,-2.5 -2.5,0 0,-4.1667 -3.3333,0 0,4.1667 -3.33329,0 0,-4.1667 -3.33336,0 0,4.1667 -3.33336,0 0,-4.1667 -3.33329,0 0,4.1667 -3.33336,0 0,-4.1667 -3.33329,0 0,4.1667 -3.33336,0 0,-4.1667 -3.33336,0 0,4.1667 -3.33329,0 0,-4.1667 -3.3333,0 z m 10.57286,12.6822 2.76045,0 0,2.2396 c 0.70725,0.1587 1.35894,0.4312 1.95314,0.8074 l 1.58854,-1.5886 1.95307,1.9531 -1.5886,1.5885 c 0.37624,0.5938 0.6484,1.2462 0.80743,1.9531 l 2.23957,0 0,2.7605 -0.80737,0 1.64072,1.4844 c 0.57474,-0.4048 1.2286,-0.7182 1.92709,-0.9115 l -0.13029,-2.2395 2.76037,-0.1303 0.10423,2.2396 c 0.71425,0.12371 1.39328,0.3567 2.00525,0.7032 l 1.51045,-1.6667 2.03117,1.8489 -1.51037,1.6667 c 0.4048,0.57461 0.71788,1.2288 0.9114,1.92711 l 2.23956,-0.10421 0.13029,2.73431 -2.23957,0.10419 c -0.12403,0.7152 -0.35598,1.3928 -0.70321,2.0052 l 1.64073,1.5105 -1.82293,2.0312 -1.66671,-1.51039 c -0.57527,0.40539 -1.22791,0.71799 -1.92708,0.91149 l 0.10416,2.2395 -2.73439,0.13021 -0.10415,-2.21351 c -0.71432,-0.1237 -1.39322,-0.3825 -2.00526,-0.7292 l -1.51037,1.6667 -2.03117,-1.849 1.51036,-1.6666 c -0.4056,-0.5754 -0.71788,-1.2276 -0.91146,-1.9271 l -2.23963,0.1302 -0.13022,-2.7604 2.21351,-0.1041 c 0.12409,-0.7141 0.38271,-1.3936 0.72919,-2.0053 l -1.66671,-1.5104 1.82292,-2.0052 -1.38008,0 c -0.15903,0.7082 -0.43052,1.3584 -0.80743,1.9531 l 1.5886,1.58861 -1.95307,1.9531 -1.58854,-1.58861 c -0.5946,0.3767 -1.24529,0.6485 -1.95314,0.8073 l 0,2.2396 -2.76045,0 0,-2.2396 c -0.70737,-0.1587 -1.35887,-0.431 -1.95306,-0.8073 l -1.58861,1.58861 -1.95308,-1.9531 1.58848,-1.58861 c -0.37672,-0.5947 -0.64833,-1.245 -0.80723,-1.9531 l -2.23957,0 0,-2.7605 2.23957,0 c 0.1589,-0.7069 0.43125,-1.3591 0.80723,-1.9531 l -1.58848,-1.5885 1.95308,-1.9531 1.58861,1.5886 c 0.59399,-0.3761 1.24596,-0.6487 1.95306,-0.8074 l 0,-2.2396 z m 1.38023,6.25 c -1.15049,0 -2.08329,0.9327 -2.08329,2.0834 0,1.1506 0.9328,2.0833 2.08329,2.0833 1.15061,0 2.08336,-0.9327 2.08336,-2.0833 0,-1.1507 -0.93275,-2.0834 -2.08336,-2.0834 z m 12.65629,7.9688 c -1.14928,0.057 -2.03583,1.0382 -1.9792,2.1875 0.0572,1.1492 1.03832,2.0358 2.18752,1.9792 1.1492,-0.057 2.03575,-1.0383 1.9792,-2.1875 -0.0573,-1.1493 -1.03844,-2.0359 -2.18752,-1.9792 z"
               style="fill:#ffffff;fill-opacity:1;fill-rule:nonzero;stroke:none" />
          </g>
        </g>
        <text
           xml:space="preserve"
           style="font-size:40px;font-style:normal;font-variant:normal;font-weight:normal;font-stretch:normal;line-height:125%;letter-spacing:0px;word-spacing:0px;fill:#999999;fill-opacity:1;stroke:none;font-family:Open Sans;-inkscape-font-specification:Open Sans"
           x="118.3858"
           y="691.05713"
           id="text3989"
           sodipodi:linespacing="125%"><tspan
             sodipodi:role="line"
             id="tspan3991"
             x="118.3858"
             y="691.05713">18, JUNE</tspan></text>
        <text
           xml:space="preserve"
           style="font-size:40px;font-style:normal;font-variant:normal;font-weight:normal;font-stretch:normal;line-height:125%;letter-spacing:0px;word-spacing:0px;fill:#999999;fill-opacity:1;stroke:none;font-family:Open Sans;-inkscape-font-specification:Open Sans"
           x="769.73621"
           y="691.05713"
           id="text3993"
           sodipodi:linespacing="125%"><tspan
             sodipodi:role="line"
             id="tspan3995"
             x="769.73621"
             y="691.05713">22, JUNE</tspan></text>
      </g>
      <text
         sodipodi:linespacing="125%"
         id="text4112"
         y="931.14386"
         x="524.38422"
         style="font-size:40px;font-style:normal;font-variant:normal;font-weight:bold;font-stretch:normal;text-align:center;line-height:125%;letter-spacing:0px;word-spacing:0px;text-anchor:middle;fill:#999999;fill-opacity:1;stroke:none;font-family:Open Sans;-inkscape-font-specification:Open Sans Bold"
         xml:space="preserve"><tspan
           y="931.14386"
           x="524.38422"
           id="tspan4114"
           sodipodi:role="line">A JOINT VENTURE BY</tspan><tspan
           id="tspan4116"
           y="981.14386"
           x="524.38422"
           sodipodi:role="line">FSFTN, IIT-M GLUG &amp; RUBBER STRAW</tspan></text>
      <rect
         y="1002.5708"
         x="1.3955688"
         height="52.529831"
         width="1049.571"
         id="rect4118"
         style="fill:#999999;fill-opacity:1;stroke:none" />
      <text
         sodipodi:linespacing="125%"
         id="text4166"
         y="1039.199"
         x="28.649765"
         style="font-size:28px;font-style:normal;font-variant:normal;font-weight:bold;font-stretch:normal;line-height:125%;letter-spacing:0px;word-spacing:0px;fill:#ffffff;fill-opacity:1;stroke:none;font-family:Merriweather Sans;-inkscape-font-specification:Merriweather Sans Bold"
         xml:space="preserve"><tspan
           y="1039.199"
           x="28.649765"
           id="tspan4168"
           sodipodi:role="line">WWW.FSFTN.ORG</tspan></text>
      <text
         sodipodi:linespacing="125%"
         id="text4170"
         y="1035.9451"
         x="627.09656"
         style="font-size:28px;font-style:normal;font-variant:normal;font-weight:bold;font-stretch:normal;line-height:125%;letter-spacing:0px;word-spacing:0px;fill:#ffffff;fill-opacity:1;stroke:none;font-family:Merriweather Sans;-inkscape-font-specification:Merriweather Sans Bold"
         xml:space="preserve"><tspan
           y="1035.9451"
           x="627.09656"
           id="tspan4172"
           sodipodi:role="line">IC &amp; SR AUDITORIUM, IIT-M</tspan></text>
    </g>
  </g>
</svg>
