<?xml version="1.0" encoding="UTF-8" standalone="no"?>
<!-- Created with Inkscape (http://www.inkscape.org/) -->

<svg
   xmlns:dc="http://purl.org/dc/elements/1.1/"
   xmlns:cc="http://creativecommons.org/ns#"
   xmlns:rdf="http://www.w3.org/1999/02/22-rdf-syntax-ns#"
   xmlns:svg="http://www.w3.org/2000/svg"
   xmlns="http://www.w3.org/2000/svg"
   xmlns:sodipodi="http://sodipodi.sourceforge.net/DTD/sodipodi-0.dtd"
   xmlns:inkscape="http://www.inkscape.org/namespaces/inkscape"
   width="1052.3622"
   height="744.09448"
   id="svg4270"
   version="1.1"
   inkscape:version="0.48.3.1 r9886"
   sodipodi:docname="poster_3.svg">
  <defs
     id="defs4272" />
  <sodipodi:namedview
     id="base"
     pagecolor="#ffffff"
     bordercolor="#666666"
     borderopacity="1.0"
     inkscape:pageopacity="0.0"
     inkscape:pageshadow="2"
     inkscape:zoom="0.53100739"
     inkscape:cx="258.92786"
     inkscape:cy="484.12328"
     inkscape:document-units="px"
     inkscape:current-layer="layer1"
     showgrid="false"
     showguides="true"
     inkscape:guide-bbox="true"
     inkscape:window-width="1364"
     inkscape:window-height="747"
     inkscape:window-x="0"
     inkscape:window-y="19"
     inkscape:window-maximized="0" />
  <metadata
     id="metadata4275">
    <rdf:RDF>
      <cc:Work
         rdf:about="">
        <dc:format>image/svg+xml</dc:format>
        <dc:type
           rdf:resource="http://purl.org/dc/dcmitype/StillImage" />
        <dc:title></dc:title>
      </cc:Work>
    </rdf:RDF>
  </metadata>
  <g
     inkscape:label="Layer 1"
     inkscape:groupmode="layer"
     id="layer1"
     transform="translate(0,-308.2677)">
    <g
       id="g5984"
       inkscape:export-filename="/home/yogesh/FSFTN_stuff/poster_3.png"
       inkscape:export-xdpi="90"
       inkscape:export-ydpi="90">
      <rect
         transform="matrix(0,1,-1,0,0,0)"
         y="-1051.8953"
         x="307.45779"
         height="1051.4285"
         width="745.71429"
         id="rect4919"
         style="fill:#fdb813;fill-opacity:1;stroke:none" />
      <text
         transform="translate(0,308.2677)"
         sodipodi:linespacing="125%"
         id="text4921"
         y="101.23734"
         x="162.85715"
         style="font-size:40px;font-style:normal;font-variant:normal;font-weight:normal;font-stretch:normal;line-height:125%;letter-spacing:0px;word-spacing:0px;fill:#000000;fill-opacity:1;stroke:none;font-family:Merriweather Sans;-inkscape-font-specification:Merriweather Sans"
         xml:space="preserve"><tspan
           y="101.23734"
           x="162.85715"
           id="tspan4923"
           sodipodi:role="line" /></text>
      <text
         sodipodi:linespacing="125%"
         id="text4925"
         y="391.89789"
         x="525.14197"
         style="font-size:32px;font-style:normal;font-variant:normal;font-weight:bold;font-stretch:normal;text-align:center;line-height:125%;letter-spacing:0px;word-spacing:0px;text-anchor:middle;fill:#000000;fill-opacity:1;stroke:none;font-family:Merriweather Sans;-inkscape-font-specification:Merriweather Sans Bold"
         xml:space="preserve"><tspan
           y="391.89789"
           x="525.14197"
           id="tspan4927"
           sodipodi:role="line">FSFTN, IIT-M GLUG &amp; THOR'S HAMMER</tspan><tspan
           id="tspan4929"
           y="431.89789"
           x="525.14197"
           sodipodi:role="line">PRESENT</tspan></text>
      <text
         sodipodi:linespacing="125%"
         id="text5272"
         y="619.58154"
         x="102.21766"
         style="font-size:28px;font-style:normal;font-variant:normal;font-weight:normal;font-stretch:normal;line-height:125%;letter-spacing:0px;word-spacing:0px;fill:#ffffff;fill-opacity:1;stroke:none;font-family:Merriweather Sans;-inkscape-font-specification:Merriweather Sans"
         xml:space="preserve"><tspan
           y="619.58154"
           x="102.21766"
           id="tspan5274"
           sodipodi:role="line">DAY 1</tspan></text>
      <path
         inkscape:connector-curvature="0"
         id="path4130"
         d="m 134.49074,687.21381 c -1.90868,-0.49169 -3.67036,-1.48522 -5.65095,-1.73801 -1.44233,-0.18542 -3.79855,-0.70528 -2.57463,-2.63022 0.21481,-1.37107 -1.03966,-4.19745 1.50856,-3.75818 1.29642,0.60985 1.57456,-2.05011 2.04946,-1.47421 0.19994,1.85548 -1.67833,2.13819 -3.06236,1.90074 -0.54238,1.24853 1.29129,3.05391 -0.29216,4.30105 0.41576,1.1296 2.52138,0.8796 3.63051,1.39258 1.60065,0.29975 3.15428,0.96368 4.79122,0.98671 1.76173,-0.21418 1.81224,-2.63728 0.94831,-3.79604 -1.30254,-1.95405 -2.43646,-4.09765 -4.19202,-5.69183 -0.69939,-0.68335 -2.19515,0.62042 -1.77037,-1.06713 -0.0972,-1.2832 0.95218,-2.28771 1.32488,-3.45814 0.64578,-1.67126 1.22695,-3.40123 2.45261,-4.75766 0.66446,-1.02449 1.51177,-1.99289 2.03076,-3.08143 0.0525,-2.80318 -0.5464,-5.65701 0.066,-8.42559 0.43285,-2.05449 2.61104,-3.12575 4.57353,-2.93422 2.43618,-0.11269 5.06465,1.51964 5.29376,4.09999 0.37538,2.41943 0.0239,5.07615 1.46719,7.20967 1.31252,2.72809 3.81174,4.79854 4.51479,7.83121 0.27543,1.50569 0.94839,3.16649 0.30366,4.65865 -0.87006,1.1484 -2.15067,2.67439 -3.76863,2.29106 -1.189,-0.11548 -1.09753,-2.89216 -2.28202,-1.39097 -0.59731,1.86493 0.55859,3.7603 0.0636,5.64884 -0.61213,1.491 0.70376,3.30651 2.3397,2.73649 1.39691,-0.65429 2.40571,-2.02508 3.98222,-2.35339 1.1825,-0.075 3.74115,-1.73615 1.49659,-2.40374 -1.48242,0 -2.24626,-2.30716 -1.3793,-3.1319 -0.16127,1.87764 1.73987,2.54287 2.73159,3.70635 -0.0163,1.56139 -2.14133,1.93655 -3.25198,2.65822 -1.38711,0.5636 -2.13882,2.06293 -3.5366,2.55229 -1.70225,0.58792 -2.95644,-0.62812 -3.98567,-1.57674 -2.21307,-0.0105 -4.46684,-0.23447 -6.65477,0.16233 -1.21389,0.21832 -1.84318,1.76098 -3.16759,1.53322 z m 3.10026,-2.31367 c 1.0109,-0.70541 -1.44959,-2.84243 0.24591,-1.94619 1.40874,0.95791 3.3898,0.53579 4.88791,-0.0245 0.78827,-0.22957 2.13561,-2.77796 2.15235,-0.76973 -0.14121,0.57858 -0.88568,3.03541 0.0299,2.57568 0.49537,-2.40345 0.28697,-4.8735 0.47501,-7.2952 0.37825,-0.90948 1.57114,-0.30588 1.65384,-1.42883 0.78647,-0.73235 2.14699,-0.15422 2.80998,-0.0616 -1.80292,-0.58443 -0.44357,-2.21241 -0.74552,-3.57741 -0.23383,-1.68966 -1.08959,-3.34687 -2.33229,-4.51608 -1.18217,-0.95883 1.44555,2.25996 0.78344,1.58681 0.97801,1.60176 1.65238,3.70302 0.86917,5.51014 -0.82958,1.26064 -2.14448,0.14335 -1.65216,-1.09584 0.14735,-1.84233 -0.57426,-3.57405 -1.51944,-5.1128 -0.51263,-1.54204 -0.99102,-3.10524 -1.9989,-4.41402 -0.21219,-1.17288 0.76717,-2.87316 -1.20187,-2.9308 -1.9688,0.0119 -1.41967,-3.39468 0.36892,-2.18087 0.63476,0.471 -0.35713,2.59115 0.91887,1.64213 0.48545,-1.46306 -0.58974,-3.77978 -2.40432,-2.96641 -1.23944,0.345 -0.32803,2.53993 -1.13499,2.56483 -2.0652,0.6014 -0.5587,-3.04025 -2.73659,-2.40292 -1.09379,0.39043 -0.91165,3.40992 0.0792,2.9825 -0.3173,-0.41702 -1.06341,-2.39148 0.5043,-2.01417 2.04607,1.58529 -2.16742,2.43458 -0.98019,3.77075 0.99826,1.53188 2.95143,0.92434 4.36601,0.37183 0.55672,-0.16122 2.41161,-1.30202 1.31572,-0.17709 -1.45057,0.43167 -2.77177,1.43669 -4.35708,1.18577 -1.31422,0.0583 1.14611,1.35457 1.71192,0.63634 0.83419,0.0105 2.5502,-1.76751 2.8118,-0.77451 -1.55474,0.47162 -2.60526,2.39872 -4.30348,2.14385 -0.88241,-0.33625 -1.66791,-2.93089 -1.97323,-0.86073 -1.07297,1.30464 -0.7054,3.04153 -1.43174,4.39207 -1.13638,1.80724 -1.64713,3.95569 -1.53683,6.08205 -1.0398,0.76064 -1.72167,-1.96152 -1.19218,-2.85345 -0.0888,-0.87175 -0.73504,1.79691 -0.23547,2.29851 0.64019,1.50911 2.16098,2.38371 3.3132,3.47598 0.92972,0.67105 3.03187,2.0763 1.42457,3.17971 -1.14191,0.40877 0.7716,1.39208 0.71444,2.17312 0.36514,0.2725 -0.338,1.69012 0.30027,0.83127 l 0,0 z m 0.44136,-23.76232 c -0.27099,-0.67641 1.34884,-0.46976 0,0 z m 1.83668,-0.17673 c -0.89547,-0.74144 1.23185,0.14261 0,0 z m -6.69264,9.02622 c 0.70868,-0.42985 0.12202,-1.41365 -0.0847,-0.29245 -0.3891,0.30318 -0.40414,0.88487 0.0847,0.29245 z m 12.48805,-5.55528 c 0.58892,-0.82339 -2.01745,-1.88242 -0.87787,-0.44928 0.16267,0.17003 0.65045,0.83972 0.87787,0.44928 z m -7.86634,-4.17791 c 0.15912,-0.92307 -0.84742,-1.19639 -0.16045,-0.17965 -0.12335,0.0461 0.10965,0.3695 0.16045,0.17965 z m 4.53265,-0.0859 c 0.47127,-0.87967 -1.4483,-1.26953 -0.22036,-0.36244 0.12097,0.0542 -0.014,0.47489 0.22036,0.36244 z m 0.23342,-4.37592 c 1.31858,0.12005 0.6115,-1.15428 -0.15731,-0.8378 0.0827,0.32482 -0.76955,1.42603 0.15731,0.8378 z"
         style="fill:#000000;fill-opacity:1" />
      <text
         sodipodi:linespacing="125%"
         id="text5369"
         y="719.45398"
         x="82.224487"
         style="font-size:20px;font-style:normal;font-variant:normal;font-weight:bold;font-stretch:normal;line-height:125%;letter-spacing:0px;word-spacing:0px;fill:#000000;fill-opacity:1;stroke:none;font-family:Merriweather Sans;-inkscape-font-specification:Merriweather Sans Bold"
         xml:space="preserve"><tspan
           y="719.45398"
           x="82.224487"
           id="tspan5371"
           sodipodi:role="line">GNU/LINUX</tspan></text>
      <text
         xml:space="preserve"
         style="font-size:28px;font-style:normal;font-variant:normal;font-weight:normal;font-stretch:normal;line-height:125%;letter-spacing:0px;word-spacing:0px;fill:#ffffff;fill-opacity:1;stroke:none;font-family:Merriweather Sans;-inkscape-font-specification:Merriweather Sans"
         x="287.4054"
         y="619.58154"
         id="text5276"
         sodipodi:linespacing="125%"><tspan
           sodipodi:role="line"
           id="tspan5278"
           x="287.4054"
           y="619.58154">DAY 2</tspan></text>
      <path
         inkscape:connector-curvature="0"
         id="path4154"
         d="m 329.25511,652.24923 c -4.1211,0 -7.54417,3.38184 -7.54417,7.50295 l 0,6.01885 -3.21555,0 0,21.4782 21.47821,0 0,-21.4782 -3.21555,0 0,-6.01885 c 0,-4.12111 -3.38183,-7.50295 -7.50294,-7.50295 z m 0,4.28741 c 1.81918,0 3.21555,1.39635 3.21555,3.21554 l 0,6.01885 -6.4311,0 0,-6.01885 c 0,-1.81919 1.39637,-3.21554 3.21555,-3.21554 z m 0,17.56183 c 1.42126,0 2.55595,1.17592 2.55595,2.59717 0,0.94966 -0.51261,1.78022 -1.27797,2.22616 l 0,4.08126 -2.59718,0 0,-4.08126 c -0.76918,-0.44495 -1.27798,-1.27361 -1.27798,-2.22616 0,-1.42125 1.17593,-2.59717 2.59718,-2.59717 z"
         style="fill:#000000;fill-opacity:1;fill-rule:nonzero;stroke:none" />
      <text
         xml:space="preserve"
         style="font-size:20px;font-style:normal;font-variant:normal;font-weight:bold;font-stretch:normal;text-align:center;line-height:125%;letter-spacing:0px;word-spacing:0px;text-anchor:middle;fill:#000000;fill-opacity:1;stroke:none;font-family:Merriweather Sans;-inkscape-font-specification:Merriweather Sans Bold"
         x="328.0675"
         y="719.45398"
         id="text5373"
         sodipodi:linespacing="125%"><tspan
           sodipodi:role="line"
           id="tspan5375"
           x="328.0675"
           y="719.45398">SCRIPTING</tspan><tspan
           id="tspan5430"
           sodipodi:role="line"
           x="328.0675"
           y="744.45398">&amp;</tspan><tspan
           id="tspan5432"
           sodipodi:role="line"
           x="328.0675"
           y="769.45398">N/W SECURITY</tspan></text>
      <text
         sodipodi:linespacing="125%"
         id="text5280"
         y="619.58154"
         x="476.92419"
         style="font-size:28px;font-style:normal;font-variant:normal;font-weight:normal;font-stretch:normal;line-height:125%;letter-spacing:0px;word-spacing:0px;fill:#ffffff;fill-opacity:1;stroke:none;font-family:Merriweather Sans;-inkscape-font-specification:Merriweather Sans"
         xml:space="preserve"><tspan
           y="619.58154"
           x="476.92419"
           id="tspan5282"
           sodipodi:role="line">DAY 3</tspan></text>
      <path
         inkscape:connector-curvature="0"
         id="path4181"
         d="m 508.08818,652.25353 0,27.89951 8.58489,-3.41331 4.37446,10.5095 3.20795,-1.29351 -4.35625,-10.5095 8.32971,-3.32348 -20.14076,-19.86921 z"
         style="fill:#000000;fill-opacity:1;stroke:none" />
      <text
         sodipodi:linespacing="125%"
         id="text5377"
         y="719.45398"
         x="517.61169"
         style="font-size:20px;font-style:normal;font-variant:normal;font-weight:bold;font-stretch:normal;text-align:center;line-height:125%;letter-spacing:0px;word-spacing:0px;text-anchor:middle;fill:#000000;fill-opacity:1;stroke:none;font-family:Merriweather Sans;-inkscape-font-specification:Merriweather Sans Bold"
         xml:space="preserve"><tspan
           y="719.45398"
           x="517.61169"
           id="tspan5379"
           sodipodi:role="line">WEBTECH:</tspan><tspan
           id="tspan5428"
           y="744.45398"
           x="517.61169"
           sodipodi:role="line">BEGINNERS</tspan></text>
      <text
         xml:space="preserve"
         style="font-size:28px;font-style:normal;font-variant:normal;font-weight:normal;font-stretch:normal;line-height:125%;letter-spacing:0px;word-spacing:0px;fill:#ffffff;fill-opacity:1;stroke:none;font-family:Merriweather Sans;-inkscape-font-specification:Merriweather Sans"
         x="647.17542"
         y="619.58154"
         id="text5284"
         sodipodi:linespacing="125%"><tspan
           sodipodi:role="line"
           id="tspan5286"
           x="647.17542"
           y="619.58154">DAY 4</tspan></text>
      <path
         inkscape:connector-curvature="0"
         id="path4205"
         d="m 673.36289,678.71118 c -1.14425,1.14425 -1.14425,3.04474 0,4.18899 l 3.49085,3.49088 c 1.14424,1.14424 3.04475,1.14424 4.189,0 l 9.3089,-9.30892 c 1.14426,-1.14424 1.14425,-3.04473 -10e-6,-4.18899 l -0.7327,-0.73274 2.79268,-2.79267 0.7327,0.7327 c 1.14425,1.1443 3.04476,1.1443 4.18901,0 l 9.30891,-9.30886 c 1.14424,-1.1443 1.14424,-3.0448 0,-4.18903 l -3.49085,-3.49084 c -1.14424,-1.14424 -3.04475,-1.14424 -4.18901,0 l -9.30889,9.30892 c -1.14427,1.14424 -1.14427,3.04474 0,4.18899 l 0.89635,0.89635 -2.79267,2.79267 -0.89636,-0.89636 c -1.14424,-1.14425 -3.04476,-1.14425 -4.189,0 l -9.30891,9.30891 z m 1.86178,1.86177 9.3089,-9.3089 c 0.14504,-0.14501 0.32042,-0.14501 0.46546,0 l 0.89634,0.89635 -1.39634,1.39632 c -0.64464,0.64468 -0.74843,1.57883 -0.23271,2.09455 0.5157,0.51566 1.44985,0.4119 2.09448,-0.23272 l 1.39636,-1.39638 0.7327,0.73274 c 0.14504,0.145 0.14504,0.32039 0,0.46545 l -9.30889,9.30891 c -0.14504,0.14503 -0.32042,0.14503 -0.46546,0 l -3.49084,-3.49088 c -0.14502,-0.14498 -0.14502,-0.32037 0,-0.46544 z m 16.29058,-16.29056 9.30891,-9.30892 c 0.14502,-0.14499 0.32041,-0.14499 0.46544,0 l 3.49085,3.49084 c 0.14502,0.14504 0.14502,0.32043 0,0.46543 l -9.30891,9.30892 c -0.14503,0.14505 -0.32041,0.14505 -0.46545,0 l -0.73271,-0.7327 1.39634,-1.39631 c 0.64465,-0.64468 0.74844,-1.57885 0.23272,-2.09451 -0.51571,-0.51572 -1.44986,-0.41195 -2.0945,0.23273 l -1.39633,1.39632 -0.89636,-0.89636 c -0.14503,-0.14505 -0.14502,-0.32044 0,-0.46544 z"
         style="font-size:medium;font-style:normal;font-variant:normal;font-weight:normal;font-stretch:normal;text-indent:0;text-align:start;text-decoration:none;line-height:normal;letter-spacing:normal;word-spacing:normal;text-transform:none;direction:ltr;block-progression:tb;writing-mode:lr-tb;text-anchor:start;baseline-shift:baseline;color:#000000;fill:#000000;fill-opacity:1;stroke:none;stroke-width:32;marker:none;visibility:visible;display:inline;overflow:visible;enable-background:accumulate;font-family:Sans;-inkscape-font-specification:Sans" />
      <text
         xml:space="preserve"
         style="font-size:20px;font-style:normal;font-variant:normal;font-weight:bold;font-stretch:normal;text-align:center;line-height:125%;letter-spacing:0px;word-spacing:0px;text-anchor:middle;fill:#000000;fill-opacity:1;stroke:none;font-family:Merriweather Sans;-inkscape-font-specification:Merriweather Sans Bold"
         x="690.57385"
         y="719.45398"
         id="text5416"
         sodipodi:linespacing="125%"><tspan
           sodipodi:role="line"
           id="tspan5418"
           x="690.57385"
           y="719.45398">WEBTECH:</tspan><tspan
           id="tspan5426"
           sodipodi:role="line"
           x="690.57385"
           y="744.45398">ADVANCED</tspan></text>
      <path
         style="fill:#000000;fill-opacity:1;fill-rule:nonzero;stroke:none"
         d="m 876.06073,658.08616 0,2.43026 -1.4582,0 0,1.45817 -2.4303,0 0,1.94417 2.4303,0 0,1.94419 -2.4303,0 0,1.94424 2.4303,0 0,1.94419 -2.4303,0 0,1.9442 2.4303,0 0,1.94423 -2.4303,0 0,1.9442 2.4303,0 0,1.94417 -2.4303,0 0,1.94426 2.4303,0 0,1.94418 -2.4303,0 0,1.94418 2.4303,0 0,1.45817 1.4582,0 0,2.43026 1.9441,0 0,-2.43026 1.9442,0 0,2.43026 1.9443,0 0,-2.43026 1.9442,0 0,2.43026 1.9442,0 0,-2.43026 1.9442,0 0,2.43026 1.9442,0 0,-2.43026 1.9442,0 0,2.43026 1.9442,0 0,-2.43026 1.9442,0 0,2.43026 1.9442,0 0,-2.43026 1.4581,0 0,-1.45817 2.4303,0 0,-1.94418 -2.4303,0 0,-1.94418 2.4303,0 0,-1.94426 -2.4303,0 0,-1.94417 2.4303,0 0,-1.9442 -2.4303,0 0,-1.94423 2.4303,0 0,-1.9442 -2.4303,0 0,-1.94419 2.4303,0 0,-1.94424 -2.4303,0 0,-1.94419 2.4303,0 0,-1.94417 -2.4303,0 0,-1.45817 -1.4581,0 0,-2.43026 -1.9442,0 0,2.43026 -1.9442,0 0,-2.43026 -1.9442,0 0,2.43026 -1.9442,0 0,-2.43026 -1.9442,0 0,2.43026 -1.9442,0 0,-2.43026 -1.9442,0 0,2.43026 -1.9442,0 0,-2.43026 -1.9443,0 0,2.43026 -1.9442,0 0,-2.43026 -1.9441,0 z m 6.1667,7.39703 1.6101,0 0,1.30627 c 0.4125,0.0926 0.7926,0.2515 1.1392,0.47093 l 0.9265,-0.92656 1.1392,1.13917 -0.9266,0.92651 c 0.2194,0.34634 0.3782,0.72685 0.4709,1.13917 l 1.3063,0 0,1.61009 -0.4709,0 0.9569,0.86578 c 0.3353,-0.2361 0.7166,-0.4189 1.124,-0.53164 l -0.076,-1.3062 1.61,-0.0759 0.061,1.30628 c 0.4166,0.0722 0.8127,0.20805 1.1696,0.41014 l 0.881,-0.97212 1.1847,1.07838 -0.881,0.97213 c 0.2362,0.33514 0.4188,0.7167 0.5316,1.12399 l 1.3063,-0.0608 0.076,1.59481 -1.3062,0.0608 c -0.072,0.41713 -0.2077,0.81235 -0.4102,1.16955 l 0.957,0.88103 -1.0632,1.18471 -0.9722,-0.88095 c -0.3355,0.23646 -0.7162,0.41876 -1.124,0.53164 l 0.061,1.3062 -1.5949,0.0759 -0.061,-1.29106 c -0.4167,-0.0722 -0.8126,-0.22309 -1.1696,-0.42532 l -0.881,0.97213 -1.1847,-1.07844 0.881,-0.97207 c -0.2366,-0.33561 -0.4187,-0.71601 -0.5317,-1.12401 l -1.3062,0.0759 -0.076,-1.61002 1.2911,-0.0607 c 0.072,-0.41652 0.2232,-0.81285 0.4253,-1.16962 l -0.9721,-0.88095 1.0632,-1.16955 -0.805,0 c -0.093,0.41305 -0.2511,0.7923 -0.4709,1.13915 l 0.9266,0.92657 -1.1392,1.13917 -0.9265,-0.92657 c -0.3468,0.21972 -0.7264,0.37825 -1.1392,0.47087 l 0,1.30626 -1.6101,0 0,-1.30626 c -0.4126,-0.0926 -0.7926,-0.25139 -1.1391,-0.47087 l -0.9266,0.92657 -1.1392,-1.13917 0.9265,-0.92657 c -0.2197,-0.34686 -0.3781,-0.72615 -0.4708,-1.13915 l -1.3062,0 0,-1.61011 1.3062,0 c 0.093,-0.41232 0.2515,-0.79272 0.4708,-1.13917 l -0.9265,-0.92651 1.1392,-1.13917 0.9266,0.92657 c 0.3464,-0.21936 0.7267,-0.37835 1.1391,-0.47091 l 0,-1.30629 z m 0.8051,3.64538 c -0.6711,0 -1.2152,0.54401 -1.2152,1.21517 0,0.6711 0.5441,1.21511 1.2152,1.21511 0.671,0 1.2151,-0.54401 1.2151,-1.21511 0,-0.67116 -0.5441,-1.21517 -1.2151,-1.21517 z m 7.3819,4.64791 c -0.6704,0.0332 -1.1874,0.60554 -1.1544,1.27588 0.033,0.67028 0.6056,1.18741 1.2759,1.15439 0.6703,-0.0333 1.1874,-0.60559 1.1544,-1.27588 -0.033,-0.67035 -0.6057,-1.18746 -1.2759,-1.15439 z"
         id="path4243"
         inkscape:connector-curvature="0" />
      <text
         sodipodi:linespacing="125%"
         id="text5288"
         y="619.58154"
         x="845.2323"
         style="font-size:28px;font-style:normal;font-variant:normal;font-weight:normal;font-stretch:normal;line-height:125%;letter-spacing:0px;word-spacing:0px;fill:#ffffff;fill-opacity:1;stroke:none;font-family:Merriweather Sans;-inkscape-font-specification:Merriweather Sans"
         xml:space="preserve"><tspan
           y="619.58154"
           x="845.2323"
           id="tspan5290"
           sodipodi:role="line">DAY 5</tspan></text>
      <text
         sodipodi:linespacing="125%"
         id="text5420"
         y="719.45398"
         x="886.63171"
         style="font-size:20px;font-style:normal;font-variant:normal;font-weight:bold;font-stretch:normal;text-align:center;line-height:125%;letter-spacing:0px;word-spacing:0px;text-anchor:middle;fill:#000000;fill-opacity:1;stroke:none;font-family:Merriweather Sans;-inkscape-font-specification:Merriweather Sans Bold"
         xml:space="preserve"><tspan
           y="719.45398"
           x="886.63171"
           id="tspan5422"
           sodipodi:role="line">COLLABORATIVE</tspan><tspan
           id="tspan5424"
           y="744.45398"
           x="886.63171"
           sodipodi:role="line">COMPUTING</tspan></text>
      <path
         sodipodi:nodetypes="cccc"
         inkscape:connector-curvature="0"
         id="rect5633"
         d="m 225.45408,595.27655 15,15 -15,15 z"
         style="fill:#ffffff;fill-opacity:1;stroke:none" />
      <path
         style="fill:#ffffff;fill-opacity:1;stroke:none"
         d="m 417.0255,595.27655 15,15 -15,15 z"
         id="path5636"
         inkscape:connector-curvature="0"
         sodipodi:nodetypes="cccc" />
      <path
         sodipodi:nodetypes="cccc"
         inkscape:connector-curvature="0"
         id="path5638"
         d="m 601.77041,595.27655 15,15 -15,15 z"
         style="fill:#ffffff;fill-opacity:1;stroke:none" />
      <path
         style="fill:#ffffff;fill-opacity:1;stroke:none"
         d="m 773.36734,595.27655 15,15 -15,15 z"
         id="path5640"
         inkscape:connector-curvature="0"
         sodipodi:nodetypes="cccc" />
      <text
         sodipodi:linespacing="125%"
         id="text5729"
         y="515.16968"
         x="364.81387"
         style="font-size:28px;font-style:normal;font-variant:normal;font-weight:normal;font-stretch:normal;line-height:125%;letter-spacing:0px;word-spacing:0px;fill:#000000;fill-opacity:1;stroke:none;font-family:Merriweather Sans;-inkscape-font-specification:Merriweather Sans"
         xml:space="preserve"><tspan
           y="515.16968"
           x="364.81387"
           id="tspan5731"
           sodipodi:role="line">18, JUNE</tspan></text>
      <text
         sodipodi:linespacing="125%"
         id="text5737"
         y="514.87573"
         x="567.22198"
         style="font-size:28px;font-style:normal;font-variant:normal;font-weight:normal;font-stretch:normal;line-height:125%;letter-spacing:0px;word-spacing:0px;fill:#000000;fill-opacity:1;stroke:none;font-family:Merriweather Sans;-inkscape-font-specification:Merriweather Sans"
         xml:space="preserve"><tspan
           y="514.87573"
           x="567.22198"
           id="tspan5739"
           sodipodi:role="line">22, JUNE</tspan></text>
      <g
         transform="translate(-296.6756,-299.46881)"
         id="g5831">
        <path
           style="fill:#ffffff;fill-opacity:1;stroke:none"
           d="m 793.36734,792.35818 15,15 -15,15 z"
           id="path5789"
           inkscape:connector-curvature="0"
           sodipodi:nodetypes="cccc" />
        <path
           sodipodi:nodetypes="cccc"
           inkscape:connector-curvature="0"
           id="path5827"
           d="m 813.36734,792.35818 15,15 -15,15 z"
           style="fill:#ffffff;fill-opacity:1;stroke:none" />
        <path
           style="fill:#ffffff;fill-opacity:1;stroke:none"
           d="m 833.36734,792.35818 15,15 -15,15 z"
           id="path5829"
           inkscape:connector-curvature="0"
           sodipodi:nodetypes="cccc" />
      </g>
      <text
         sodipodi:linespacing="125%"
         id="text5846"
         y="881.91321"
         x="525.02869"
         style="font-size:40px;font-style:normal;font-variant:normal;font-weight:normal;font-stretch:normal;text-align:center;line-height:125%;letter-spacing:0px;word-spacing:0px;text-anchor:middle;fill:#000000;fill-opacity:1;stroke:none;font-family:Merriweather Sans;-inkscape-font-specification:Merriweather Sans"
         xml:space="preserve"><tspan
           y="881.91321"
           x="525.02869"
           id="tspan5848"
           sodipodi:role="line">FIVE-DAY INDUSTRIAL TRAINING WORKSHOP</tspan><tspan
           id="tspan5850"
           y="931.91321"
           x="525.02869"
           sodipodi:role="line">ON FREE SOFTWARE TECHNOLOGIES</tspan></text>
      <text
         sodipodi:linespacing="125%"
         id="text5852"
         y="1004.6101"
         x="63.943878"
         style="font-size:22px;font-style:normal;font-variant:normal;font-weight:bold;font-stretch:normal;line-height:125%;letter-spacing:0px;word-spacing:0px;fill:#000000;fill-opacity:1;stroke:none;font-family:Merriweather Sans;-inkscape-font-specification:Merriweather Sans Bold"
         xml:space="preserve"><tspan
           y="1004.6101"
           x="63.943878"
           id="tspan5854"
           sodipodi:role="line">CONTACT</tspan></text>
      <path
         sodipodi:nodetypes="cccc"
         inkscape:connector-curvature="0"
         id="path5870"
         d="m 177.86331,983.9353 12.5,12.5 -12.5,12.5 z"
         style="fill:#ffffff;fill-opacity:1;stroke:none" />
      <text
         xml:space="preserve"
         style="font-size:22px;font-style:normal;font-variant:normal;font-weight:bold;font-stretch:normal;line-height:125%;letter-spacing:0px;word-spacing:0px;fill:#000000;fill-opacity:1;stroke:none;font-family:Merriweather Sans;-inkscape-font-specification:Merriweather Sans Bold"
         x="199.94388"
         y="1004.6101"
         id="text5885"
         sodipodi:linespacing="125%"><tspan
           sodipodi:role="line"
           id="tspan5887"
           x="199.94388"
           y="1004.6101">WWW.FSFTN.ORG</tspan></text>
      <text
         xml:space="preserve"
         style="font-size:22px;font-style:normal;font-variant:normal;font-weight:bold;font-stretch:normal;line-height:125%;letter-spacing:0px;word-spacing:0px;fill:#000000;fill-opacity:1;stroke:none;font-family:Merriweather Sans;-inkscape-font-specification:Merriweather Sans Bold"
         x="709.94385"
         y="1004.6101"
         id="text5910"
         sodipodi:linespacing="125%"><tspan
           sodipodi:role="line"
           id="tspan5912"
           x="709.94385"
           y="1004.6101">VENUE</tspan></text>
      <path
         style="fill:#ffffff;fill-opacity:1;stroke:none"
         d="m 797.20459,983.9353 12.5,12.5 -12.5,12.5 z"
         id="path5914"
         inkscape:connector-curvature="0"
         sodipodi:nodetypes="cccc" />
      <text
         sodipodi:linespacing="125%"
         id="text5916"
         y="1004.6101"
         x="819.94385"
         style="font-size:22px;font-style:normal;font-variant:normal;font-weight:bold;font-stretch:normal;line-height:125%;letter-spacing:0px;word-spacing:0px;fill:#000000;fill-opacity:1;stroke:none;font-family:Merriweather Sans;-inkscape-font-specification:Merriweather Sans Bold"
         xml:space="preserve"><tspan
           y="1004.6101"
           x="819.94385"
           id="tspan5918"
           sodipodi:role="line">IC &amp; SR, IIT-M</tspan></text>
    </g>
  </g>
</svg>
