<?xml version="1.0" encoding="UTF-8" standalone="no"?>
<!-- Created with Inkscape (http://www.inkscape.org/) -->

<svg
   xmlns:dc="http://purl.org/dc/elements/1.1/"
   xmlns:cc="http://creativecommons.org/ns#"
   xmlns:rdf="http://www.w3.org/1999/02/22-rdf-syntax-ns#"
   xmlns:svg="http://www.w3.org/2000/svg"
   xmlns="http://www.w3.org/2000/svg"
   xmlns:sodipodi="http://sodipodi.sourceforge.net/DTD/sodipodi-0.dtd"
   xmlns:inkscape="http://www.inkscape.org/namespaces/inkscape"
   width="210mm"
   height="297mm"
   viewBox="0 0 744.09448819 1052.3622047"
   id="svg2"
   version="1.1"
   inkscape:version="0.91 r13725"
   sodipodi:docname="Freedom BootCamp.svg"
   inkscape:export-filename="C:\FSFTN\Freedom BootCamp Purple.png"
   inkscape:export-xdpi="89.931084"
   inkscape:export-ydpi="89.931084">
  <defs
     id="defs4" />
  <sodipodi:namedview
     id="base"
     pagecolor="#ffffff"
     bordercolor="#666666"
     borderopacity="1.0"
     inkscape:pageopacity="0.0"
     inkscape:pageshadow="2"
     inkscape:zoom="0.80675645"
     inkscape:cx="80.193929"
     inkscape:cy="526.1811"
     inkscape:document-units="px"
     inkscape:current-layer="layer1"
     showgrid="false"
     inkscape:window-width="1920"
     inkscape:window-height="1018"
     inkscape:window-x="-8"
     inkscape:window-y="-8"
     inkscape:window-maximized="1" />
  <metadata
     id="metadata7">
    <rdf:RDF>
      <cc:Work
         rdf:about="">
        <dc:format>image/svg+xml</dc:format>
        <dc:type
           rdf:resource="http://purl.org/dc/dcmitype/StillImage" />
        <dc:title></dc:title>
      </cc:Work>
    </rdf:RDF>
  </metadata>
  <g
     inkscape:label="Layer 1"
     inkscape:groupmode="layer"
     id="layer1">
    <rect
       style="fill:#eeffaa;fill-opacity:1;stroke:#aa0088;stroke-width:7.80000019;stroke-miterlimit:4;stroke-dasharray:none;stroke-opacity:1;opacity:0.907"
       id="rect4136"
       width="702.81433"
       height="1008.9786"
       x="176.63322"
       y="-875.72894"
       rx="0.32635099"
       ry="0"
       transform="matrix(0,1,-1,0,0,0)" />
    <text
       xml:space="preserve"
       style="font-style:normal;font-variant:normal;font-weight:normal;font-stretch:normal;font-size:80px;line-height:125%;font-family:'Matura MT Script Capitals';-inkscape-font-specification:'Matura MT Script Capitals';letter-spacing:0px;word-spacing:0px;fill:#aa0088;fill-opacity:1;stroke:none;stroke-width:1px;stroke-linecap:butt;stroke-linejoin:miter;stroke-opacity:1;"
       x="-6.5533142"
       y="248.85446"
       id="text4138"
       sodipodi:linespacing="125%"><tspan
         sodipodi:role="line"
         id="tspan4140"
         x="-6.5533142"
         y="248.85446">Freedom BootCamp</tspan></text>
    <text
       xml:space="preserve"
       style="font-style:normal;font-weight:normal;font-size:45px;line-height:125%;font-family:sans-serif;letter-spacing:0px;word-spacing:0px;fill:#aa0088;fill-opacity:1;stroke:none;stroke-width:1px;stroke-linecap:butt;stroke-linejoin:miter;stroke-opacity:1;"
       x="-58.221848"
       y="809.74902"
       id="text4142"
       sodipodi:linespacing="125%"><tspan
         sodipodi:role="line"
         id="tspan4144"
         x="-58.221848"
         y="809.74902"
         style="font-style:normal;font-variant:normal;font-weight:normal;font-stretch:normal;font-size:30px;font-family:'Matura MT Script Capitals';-inkscape-font-specification:'Matura MT Script Capitals';fill:#aa0088;fill-opacity:1;">Date</tspan></text>
    <text
       xml:space="preserve"
       style="font-style:normal;font-weight:normal;font-size:45px;line-height:125%;font-family:sans-serif;letter-spacing:0px;word-spacing:0px;fill:#aa0088;fill-opacity:1;stroke:none;stroke-width:1px;stroke-linecap:butt;stroke-linejoin:miter;stroke-opacity:1;"
       x="187.94904"
       y="809.53662"
       id="text4146"
       sodipodi:linespacing="125%"><tspan
         sodipodi:role="line"
         id="tspan4148"
         x="187.94904"
         y="809.53662"
         style="font-style:normal;font-variant:normal;font-weight:normal;font-stretch:normal;font-size:30px;font-family:'Matura MT Script Capitals';-inkscape-font-specification:'Matura MT Script Capitals';fill:#aa0088;fill-opacity:1;">Time</tspan></text>
    <text
       xml:space="preserve"
       style="font-style:normal;font-variant:normal;font-weight:normal;font-stretch:normal;font-size:45px;line-height:125%;font-family:'Matura MT Script Capitals';-inkscape-font-specification:'Matura MT Script Capitals';letter-spacing:0px;word-spacing:0px;fill:#aa0088;fill-opacity:1;stroke:none;stroke-width:1px;stroke-linecap:butt;stroke-linejoin:miter;stroke-opacity:1;"
       x="440.14041"
       y="809.30225"
       id="text4150"
       sodipodi:linespacing="125%"><tspan
         sodipodi:role="line"
         id="tspan4152"
         x="440.14041"
         y="809.30225"
         style="font-size:30px;fill:#aa0088;fill-opacity:1;">Venue</tspan></text>
    <text
       xml:space="preserve"
       style="font-style:normal;font-variant:normal;font-weight:normal;font-stretch:normal;font-size:30px;line-height:125%;font-family:'Matura MT Script Capitals';-inkscape-font-specification:'Matura MT Script Capitals';letter-spacing:0px;word-spacing:0px;fill:#aa0088;fill-opacity:1;stroke:none;stroke-width:1px;stroke-linecap:butt;stroke-linejoin:miter;stroke-opacity:1;"
       x="691.41626"
       y="809.14844"
       id="text4154"
       sodipodi:linespacing="125%"><tspan
         sodipodi:role="line"
         id="tspan4156"
         x="691.41626"
         y="809.14844">Contact</tspan></text>
    <text
       xml:space="preserve"
       style="font-style:normal;font-weight:normal;font-size:60px;line-height:125%;font-family:sans-serif;letter-spacing:0px;word-spacing:0px;fill:#aa0088;fill-opacity:1;stroke:none;stroke-width:1px;stroke-linecap:butt;stroke-linejoin:miter;stroke-opacity:1;"
       x="-66.197662"
       y="460.03366"
       id="text4158"
       sodipodi:linespacing="125%"><tspan
         sodipodi:role="line"
         id="tspan4160"
         x="-66.197662"
         y="460.03366"
         style="font-style:normal;font-variant:normal;font-weight:normal;font-stretch:normal;font-size:60px;font-family:'Matura MT Script Capitals';-inkscape-font-specification:'Matura MT Script Capitals';fill:#aa0088;fill-opacity:1;">Rails</tspan></text>
    <text
       xml:space="preserve"
       style="font-style:normal;font-weight:normal;font-size:60px;line-height:125%;font-family:sans-serif;letter-spacing:0px;word-spacing:0px;fill:#aa0088;fill-opacity:1;stroke:none;stroke-width:1px;stroke-linecap:butt;stroke-linejoin:miter;stroke-opacity:1;"
       x="-87.671738"
       y="612.16107"
       id="text4162"
       sodipodi:linespacing="125%"><tspan
         sodipodi:role="line"
         id="tspan4164"
         x="-87.671738"
         y="612.16107"
         style="font-style:normal;font-variant:normal;font-weight:normal;font-stretch:normal;font-size:60px;font-family:'Matura MT Script Capitals';-inkscape-font-specification:'Matura MT Script Capitals';fill:#aa0088;fill-opacity:1;">Blender</tspan></text>
    <text
       xml:space="preserve"
       style="font-style:normal;font-variant:normal;font-weight:normal;font-stretch:normal;font-size:60px;line-height:125%;font-family:'Matura MT Script Capitals';-inkscape-font-specification:'Matura MT Script Capitals';letter-spacing:0px;word-spacing:0px;fill:#aa0088;fill-opacity:1;stroke:none;stroke-width:1px;stroke-linecap:butt;stroke-linejoin:miter;stroke-opacity:1;"
       x="-125.69515"
       y="536.30243"
       id="text4166"
       sodipodi:linespacing="125%"><tspan
         sodipodi:role="line"
         id="tspan4168"
         x="-125.69515"
         y="536.30243">Wikipedia</tspan></text>
    <g
       id="layer1-0"
       inkscape:label="Layer 1"
       transform="matrix(0.15438505,0,0,0.1225837,-144.01062,180.9252)"
       style="fill:#aa0088;fill-opacity:1">
      <g
         id="g3927"
         style="fill:#aa0088;fill-opacity:1">
        <g
           id="g3347"
           transform="translate(-80,-2)"
           style="fill:#aa0088;fill-opacity:1" />
        <path
           inkscape:connector-curvature="0"
           id="path3592"
           d="m 334.87305,824.52047 c -17.54442,-1.21605 -33.49254,-5.90775 -42.31327,-12.44793 -2.52669,-1.87341 -9.22655,-8.2323 -8.95737,-8.50149 0.0905,-0.0905 1.90963,0.0509 4.04257,0.31413 3.73603,0.46107 4.04288,0.45537 8.37807,-0.15564 2.475,-0.34881 7.2,-0.90672 10.5,-1.23975 21.8517,-2.20533 36.55074,-5.63973 51.6,-12.05628 14.81796,-6.31794 26.86041,-14.35242 37.66602,-25.12998 7.82643,-7.80612 13.27041,-14.88342 18.92511,-24.60312 11.1723,-19.20369 17.35785,-39.91659 19.18248,-64.23447 0.52137,-6.94866 0.20406,-23.26851 -0.58299,-29.98344 -2.38812,-20.37477 -7.23915,-39.56127 -15.73446,-62.23209 -3.19227,-8.51901 -10.0551,-24.71061 -10.83084,-25.55343 -0.17892,-0.1944 -1.94532,-0.56715 -3.92532,-0.82833 -18.74346,-2.47242 -38.62095,-7.06788 -66.44379,-15.36105 -48.74733,-14.53011 -75.82359,-24.59202 -104.85621,-38.96592 -10.98676,-5.43951 -31.33604,-16.57794 -32.7,-17.89875 -0.31818,-0.30813 -0.0335,-0.18444 8.4,3.64956 20.71417,9.417 44.3176,17.93988 66.9,24.15675 8.10765,2.232 24.60975,6.21861 35.85,8.66076 14.51595,3.15381 33.22491,6.84042 34.16247,6.73173 0.44367,-0.0514 0.78753,-0.28017 0.78753,-0.52383 0,-0.2379 -2.16,-2.25333 -4.8,-4.47873 -6.10224,-5.14395 -19.50405,-18.5442 -24.79161,-24.78876 -12.5307,-14.79855 -22.55325,-29.66856 -31.26899,-46.39236 -2.14644,-4.11861 -2.36515,-4.42281 -3.50895,-4.88046 -2.9231,-1.16958 -19.34459,-8.6367 -25.93045,-11.79096 -19.56305,-9.36969 -39.65982,-20.90019 -57.9,-33.22014 -7.13121,-4.81662 -13.65,-9.43884 -13.65,-9.67866 0,-0.0885 0.16875,-0.0231 0.375,0.14511 1.08922,0.88884 15.64109,8.85402 23.475,12.84942 10.33635,5.27166 18.03419,8.9145 27,12.77715 14.91922,6.42747 39.76376,15.63864 40.6701,15.07848 0.51927,-0.32094 0.28538,-1.34865 -1.04112,-4.57479 -5.53701,-13.46634 -10.56585,-32.55924 -13.21227,-50.16279 -5.02111,-33.39945 -3.6595,-74.30283 3.60344,-108.24866 11.04422,-51.61896 34.98145,-92.11057 71.02495,-120.14407 18.45459,-14.35339 40.58415,-25.06332 57.0549,-27.61259 3.33996,-0.51694 18.44535,-0.95777 17.98125,-0.52476 -0.15468,0.14432 -3.72375,2.15188 -7.93125,4.46125 -5.62092,3.08515 -9.43524,5.44853 -14.38074,8.91042 -18.16527,12.71586 -25.47267,19.02331 -36.29754,31.33053 -8.34513,9.48789 -14.76093,18.64686 -20.40396,29.12788 -2.89785,5.38235 -15.77826,31.96506 -18.24294,37.65 -10.32585,23.81711 -16.49463,51.10167 -19.26297,85.2 -3.00146,36.96942 -0.47379,70.32567 7.51335,99.15 2.30994,8.33628 7.3551,23.26185 8.81616,26.08182 0.35793,0.69081 1.2699,1.01727 9.05334,3.24096 15.45285,4.41483 33.25425,9.07365 34.6803,9.07626 0.51651,0 0.65868,-0.31764 0.53184,-1.19172 -0.0353,-0.24351 -0.97971,-2.47101 -2.09862,-4.95 -17.6904,-39.19416 -28.20702,-80.22384 -30.33153,-118.33596 -0.447,-8.01873 -0.19338,-26.70345 0.45597,-33.59193 3.4566,-36.6684 13.39044,-66.92443 31.23999,-95.1491 16.98855,-26.86323 40.17783,-49.17678 63.27735,-60.88773 6.07932,-3.08208 9.20736,-4.24785 16.82811,-6.27151 5.32041,-1.41282 7.62189,-1.81151 7.62189,-1.32035 0,1.12954 -7.91559,12.68773 -14.86065,21.69926 -17.11248,22.20416 -25.75692,35.4816 -33.88782,52.05 -20.75604,42.29474 -26.00523,84.28709 -16.76298,134.1 4.46586,24.06972 13.04094,50.19507 25.15866,76.65 5.68992,12.42204 21.31968,42.71151 22.37682,43.36485 0.33252,0.2055 6.7929,-0.52815 12.22299,-1.38804 7.76148,-1.22913 20.25918,-4.2081 22.55715,-5.37681 2.30304,-1.17126 4.86249,-3.0288 6.99357,-5.07558 6.522,-6.26409 9.80226,-14.05371 9.80226,-23.27754 l 0,-3.07455 -1.97376,-4.76115 c -1.08555,-2.61864 -2.10474,-5.09868 -2.26482,-5.51118 -0.16746,-0.43143 1.57782,1.09767 4.10895,3.6 3.81018,3.76686 4.5372,4.64133 5.4231,6.5232 2.71737,5.77239 4.00719,11.96544 4.00533,19.23162 -0.003,6.62685 -0.75042,10.76184 -3.00921,16.61907 -3.27735,8.4984 -9.9066,17.0958 -17.51316,22.71264 -2.71551,2.00517 -2.73903,2.01522 -5.87643,2.51457 -4.1217,0.65598 -11.82222,1.60785 -14.85,1.83564 -5.28711,0.39777 -5.55,0.45171 -5.55,1.13892 0,0.34788 1.15221,2.76021 2.5605,5.36079 4.78812,8.84196 12.05907,23.07564 15.15471,29.66703 1.69737,3.61416 3.28122,6.64608 3.51963,6.73755 0.52824,0.20271 7.35222,-1.74855 12.06516,-3.44994 1.8975,-0.68502 4.12911,-1.42629 4.95912,-1.6473 1.96863,-0.52419 8.24769,-3.33669 11.12592,-4.98348 6.54855,-3.74682 11.11716,-11.90895 12.12222,-21.65718 l 0.35301,-3.42414 -1.54479,-4.76451 c -0.84963,-2.62047 -1.66617,-5.13573 -1.81452,-5.58948 -0.14838,-0.45375 -0.22218,-0.825 -0.16404,-0.825 0.14352,0 6.77931,7.7229 7.60425,8.85 1.62009,2.21352 3.5412,10.06083 3.85536,15.74838 0.30879,5.58981 -0.75693,12.9066 -2.62839,18.04551 -1.27062,3.48897 -3.82356,8.28468 -6.20499,11.65611 -2.64483,3.74427 -8.1252,9.20736 -12.08508,12.04692 -3.58089,2.56782 -4.70988,3.15402 -6.42807,3.33765 -2.51847,0.26913 -10.03053,2.13198 -10.18125,2.52474 -0.0848,0.22095 0.4617,2.05296 1.2144,4.07121 16.70097,44.7804 21.8466,91.53798 14.48466,131.61948 -8.4369,45.93393 -33.74442,86.27892 -68.82924,109.72689 -17.7516,11.86377 -38.6259,19.48557 -60.23334,21.99288 -4.92306,0.57129 -17.21163,0.9771 -21.20523,0.70029 z M 395.118,535.72019 c 0.1146,-0.60129 -1.58232,-3.89898 -12.77172,-24.81978 -4.36836,-8.1675 -9.82257,-18.44946 -12.12051,-22.84878 -2.29794,-4.39932 -4.36737,-8.15589 -4.59873,-8.34792 -0.23139,-0.192 -2.01444,-0.79566 -3.96234,-1.34145 -8.53632,-2.39178 -22.88151,-7.28481 -35.31498,-12.04569 -3.6342,-1.39155 -6.78066,-2.46369 -6.99213,-2.38254 -0.82428,0.31629 -0.28758,1.69755 3.15369,8.11638 9.88755,18.44277 20.60511,34.71726 35.66037,54.15 l 4.76463,6.15 2.9934,0.50436 c 7.13829,1.20276 26.77281,3.57474 28.49031,3.44184 0.32832,-0.0255 0.64242,-0.28479 0.69801,-0.57642 z M 305.77305,776.8223 c -0.5775,-0.0655 -2.3325,-0.26187 -3.9,-0.43629 -43.55907,-4.84695 -80.23105,-37.37613 -90.45415,-80.2356 -2.00557,-8.40822 -2.84072,-15.59628 -2.84072,-24.45 0,-6.29169 0.33001,-10.70586 1.22234,-16.35 6.12692,-38.75397 33.52994,-71.11212 70.77253,-83.56995 6.637,-2.22009 12.61734,-3.60972 20.12637,-4.67661 5.32722,-0.75693 21.02004,-0.75693 26.34726,0 7.50903,1.06689 13.48938,2.45652 20.12637,4.67661 36.55386,12.22746 63.82824,43.82652 70.4493,81.61995 1.25505,7.16391 1.39497,8.99961 1.39497,18.3 0,9.30039 -0.13992,11.13609 -1.39497,18.3 -6.62319,37.80549 -33.87243,69.3759 -70.4493,81.62115 -6.63495,2.22123 -12.41697,3.56697 -19.99449,4.6536 -3.08967,0.44307 -18.78708,0.84432 -21.40551,0.54714 z m 19.63083,-9.86346 c 27.80595,-3.33846 52.23711,-18.26586 68.03613,-41.57001 8.61864,-12.71277 13.60083,-26.15865 15.72498,-42.43842 0.70065,-5.36976 0.70065,-17.13024 0,-22.5 -2.4666,-18.90423 -9.01812,-34.54446 -20.54652,-49.05 -2.91408,-3.66663 -10.77777,-11.53002 -14.457,-14.45643 -14.43675,-11.48289 -30.51468,-18.23547 -48.91422,-20.54355 -5.51094,-0.69132 -17.23746,-0.69132 -22.7484,0 -18.40233,2.30844 -34.45141,9.05091 -48.9258,20.55456 -3.6656,2.91327 -11.53216,10.77981 -14.44542,14.44542 -11.50707,14.47872 -18.10738,30.23697 -20.54448,49.05 -0.35375,2.73078 -0.50522,6.10353 -0.50522,11.25 0,14.60088 2.6878,27.2181 8.52813,40.03335 4.76732,10.46076 10.88997,19.20936 19.45181,27.79455 16.83392,16.87977 36.9408,25.96107 61.96518,27.98664 2.96538,0.24003 13.57797,-0.0995 17.38083,-0.55611 z m 40.55796,-36.83343 c -1.06959,-2.02125 -8.30844,-15.7575 -16.0863,-30.525 l -14.14158,-26.85 -3.31953,-8.55 c -1.82574,-4.7025 -3.45348,-8.71875 -3.61719,-8.925 -0.40062,-0.50472 -1.40415,-0.47628 -1.60437,0.0455 -0.0887,0.23127 0.25299,4.40481 0.75942,9.27456 l 0.92076,8.85408 0,29.72544 0,29.72544 -7.2,0 -7.2,0 0,-57.75 0,-57.75 5.475,0 5.475,0 16.19346,30.78927 16.19346,30.78927 3.19419,8.40252 c 1.89312,4.98 3.40011,8.51778 3.69975,8.68545 0.89988,0.50361 1.36947,0.0448 1.3644,-1.33284 -0.003,-0.70644 -0.33798,-4.32192 -0.74526,-8.03442 -0.7386,-6.73266 -0.74052,-6.82953 -0.74526,-37.73043 l -0.005,-30.98043 7.125,0.0804 7.125,0.0804 0.0757,57.825 0.0758,57.825 -5.53404,0 -5.53401,0 -1.94469,-3.675 z m -101.96286,-44.4 -0.0759,-47.175 -12.375,-0.0783 -12.375,-0.0783 0,-10.19799 0,-10.19802 32.625,0.0763 32.625,0.0763 0.079,10.1217 0.079,10.1217 -12.52899,0.0783 -12.52899,0.0783 -0.0759,47.175 -0.0759,47.175 -7.64814,0 -7.64814,0 -0.0759,-47.175 z"
           style="fill:#aa0088;fill-opacity:1" />
      </g>
    </g>
    <text
       xml:space="preserve"
       style="font-style:normal;font-variant:normal;font-weight:normal;font-stretch:normal;font-size:45px;line-height:125%;font-family:'Matura MT Script Capitals';-inkscape-font-specification:'Matura MT Script Capitals';letter-spacing:0px;word-spacing:0px;fill:#aa0088;fill-opacity:1;stroke:none;stroke-width:1px;stroke-linecap:butt;stroke-linejoin:miter;stroke-opacity:1;"
       x="-83.539398"
       y="328.45239"
       id="text4182"
       sodipodi:linespacing="125%"><tspan
         sodipodi:role="line"
         id="tspan4184"
         x="-83.539398"
         y="328.45239">No! Independence Day is just a co-incidence</tspan></text>
    <text
       xml:space="preserve"
       style="font-style:normal;font-variant:normal;font-weight:normal;font-stretch:normal;font-size:45px;line-height:125%;font-family:'Matura MT Script Capitals';-inkscape-font-specification:'Matura MT Script Capitals';letter-spacing:0px;word-spacing:0px;fill:#aa0088;fill-opacity:1;stroke:none;stroke-width:1px;stroke-linecap:butt;stroke-linejoin:miter;stroke-opacity:1;"
       x="403.54129"
       y="855.94672"
       id="text4186"
       sodipodi:linespacing="125%"><tspan
         sodipodi:role="line"
         id="tspan4188"
         x="403.54129"
         y="855.94672"
         style="font-size:30px;fill:#aa0088;fill-opacity:1;">fsftn Office</tspan></text>
    <text
       xml:space="preserve"
       style="font-style:normal;font-weight:normal;font-size:30px;line-height:125%;font-family:sans-serif;letter-spacing:0px;word-spacing:0px;fill:#aa0088;fill-opacity:1;stroke:none;stroke-width:1px;stroke-linecap:butt;stroke-linejoin:miter;stroke-opacity:1;"
       x="-85.460617"
       y="848.50952"
       id="text4190"
       sodipodi:linespacing="125%"><tspan
         sodipodi:role="line"
         id="tspan4192"
         x="-85.460617"
         y="848.50952"
         style="font-style:normal;font-variant:normal;font-weight:normal;font-stretch:normal;font-size:30px;font-family:'Matura MT Script Capitals';-inkscape-font-specification:'Matura MT Script Capitals';fill:#aa0088;fill-opacity:1;">Aug 15th</tspan></text>
    <text
       xml:space="preserve"
       style="font-style:normal;font-variant:normal;font-weight:normal;font-stretch:normal;font-size:30px;line-height:125%;font-family:'Matura MT Script Capitals';-inkscape-font-specification:'Matura MT Script Capitals';letter-spacing:0px;word-spacing:0px;fill:#aa0088;fill-opacity:1;stroke:none;stroke-width:1px;stroke-linecap:butt;stroke-linejoin:miter;stroke-opacity:1;"
       x="119.24053"
       y="851.55811"
       id="text4194"
       sodipodi:linespacing="125%"><tspan
         sodipodi:role="line"
         id="tspan4196"
         x="119.24053"
         y="851.55811">9-30 am to 5 pm</tspan></text>
    <text
       xml:space="preserve"
       style="font-style:normal;font-variant:normal;font-weight:normal;font-stretch:normal;font-size:30px;line-height:125%;font-family:'Matura MT Script Capitals';-inkscape-font-specification:'Matura MT Script Capitals';letter-spacing:0px;word-spacing:0px;fill:#aa0088;fill-opacity:1;stroke:none;stroke-width:1px;stroke-linecap:butt;stroke-linejoin:miter;stroke-opacity:1;"
       x="643.7356"
       y="854.79767"
       id="text4198"
       sodipodi:linespacing="125%"><tspan
         sodipodi:role="line"
         id="tspan4200"
         x="643.7356"
         y="854.79767">044-43504670</tspan></text>
    <text
       xml:space="preserve"
       style="font-style:normal;font-weight:normal;font-size:90px;line-height:125%;font-family:sans-serif;letter-spacing:0px;word-spacing:0px;fill:#aa0088;fill-opacity:1;stroke:none;stroke-width:1px;stroke-linecap:butt;stroke-linejoin:miter;stroke-opacity:1;"
       x="50.318298"
       y="721.90979"
       id="text4202"
       sodipodi:linespacing="125%"><tspan
         sodipodi:role="line"
         id="tspan4204"
         x="50.318298"
         y="721.90979"
         style="font-style:normal;font-variant:normal;font-weight:normal;font-stretch:normal;font-size:45px;font-family:'Matura MT Script Capitals';-inkscape-font-specification:'Matura MT Script Capitals';fill:#aa0088;fill-opacity:1;">Register: tiny.cc/freedom-bootcamp</tspan></text>
    <text
       xml:space="preserve"
       style="font-style:normal;font-weight:normal;font-size:90px;line-height:125%;font-family:sans-serif;letter-spacing:0px;word-spacing:0px;fill:#aa0088;fill-opacity:1;stroke:none;stroke-width:1px;stroke-linecap:butt;stroke-linejoin:miter;stroke-opacity:1;"
       x="-47.102196"
       y="96.683456"
       id="text4206"
       sodipodi:linespacing="125%"><tspan
         sodipodi:role="line"
         id="tspan4208"
         x="-47.102196"
         y="96.683456" /></text>
    <text
       xml:space="preserve"
       style="font-style:normal;font-weight:normal;font-size:90px;line-height:125%;font-family:sans-serif;letter-spacing:0px;word-spacing:0px;fill:#aa0088;fill-opacity:1;stroke:none;stroke-width:1px;stroke-linecap:butt;stroke-linejoin:miter;stroke-opacity:1;"
       x="1181.2736"
       y="313.60147"
       id="text5660"
       sodipodi:linespacing="125%"><tspan
         sodipodi:role="line"
         id="tspan5662"
         x="1181.2736"
         y="313.60147" /></text>
    <text
       xml:space="preserve"
       style="font-style:normal;font-weight:normal;font-size:35px;line-height:125%;font-family:sans-serif;letter-spacing:0px;word-spacing:0px;fill:#aa0088;fill-opacity:1;stroke:none;stroke-width:1px;stroke-linecap:butt;stroke-linejoin:miter;stroke-opacity:1;"
       x="190.72064"
       y="455.35837"
       id="text5664"
       sodipodi:linespacing="125%"><tspan
         sodipodi:role="line"
         id="tspan5666"
         x="190.72064"
         y="455.35837"
         style="font-style:normal;font-variant:normal;font-weight:normal;font-stretch:normal;font-size:35px;font-family:'Matura MT Script Capitals';-inkscape-font-specification:'Matura MT Script Capitals';fill:#aa0088;fill-opacity:1;">build a socially relevant real time app</tspan></text>
    <text
       xml:space="preserve"
       style="font-style:normal;font-weight:normal;font-size:90px;line-height:125%;font-family:sans-serif;letter-spacing:0px;word-spacing:0px;fill:#aa0088;fill-opacity:1;stroke:none;stroke-width:1px;stroke-linecap:butt;stroke-linejoin:miter;stroke-opacity:1;"
       x="1033.7692"
       y="612.32855"
       id="text5668"
       sodipodi:linespacing="125%"><tspan
         sodipodi:role="line"
         id="tspan5670"
         x="1033.7692"
         y="612.32855" /></text>
    <text
       sodipodi:linespacing="125%"
       id="text5672"
       y="530.99969"
       x="190.72064"
       style="font-style:normal;font-weight:normal;font-size:35px;line-height:125%;font-family:sans-serif;letter-spacing:0px;word-spacing:0px;fill:#aa0088;fill-opacity:1;stroke:none;stroke-width:1px;stroke-linecap:butt;stroke-linejoin:miter;stroke-opacity:1;"
       xml:space="preserve"><tspan
         style="font-style:normal;font-variant:normal;font-weight:normal;font-stretch:normal;font-size:35px;font-family:'Matura MT Script Capitals';-inkscape-font-specification:'Matura MT Script Capitals';fill:#aa0088;fill-opacity:1;"
         y="530.99969"
         x="190.72064"
         id="tspan5674"
         sodipodi:role="line">add your wisdom to the largest encyclopedia</tspan></text>
    <text
       xml:space="preserve"
       style="font-style:normal;font-weight:normal;font-size:35px;line-height:125%;font-family:sans-serif;letter-spacing:0px;word-spacing:0px;fill:#aa0088;fill-opacity:1;stroke:none;stroke-width:1px;stroke-linecap:butt;stroke-linejoin:miter;stroke-opacity:1;"
       x="190.72064"
       y="607.35028"
       id="text5676"
       sodipodi:linespacing="125%"><tspan
         sodipodi:role="line"
         id="tspan5678"
         x="190.72064"
         y="607.35028"
         style="font-style:normal;font-variant:normal;font-weight:normal;font-stretch:normal;font-size:35px;font-family:'Matura MT Script Capitals';-inkscape-font-specification:'Matura MT Script Capitals';fill:#aa0088;fill-opacity:1;">create an animation story</tspan></text>
    <text
       xml:space="preserve"
       style="font-style:normal;font-weight:normal;font-size:64.72198486px;line-height:125%;font-family:sans-serif;letter-spacing:0px;word-spacing:0px;fill:#aa0088;fill-opacity:1;stroke:none;stroke-width:1px;stroke-linecap:butt;stroke-linejoin:miter;stroke-opacity:1;"
       x="-40.06728"
       y="197.19055"
       id="text5682"
       sodipodi:linespacing="125%"
       transform="scale(0.71913323,1.3905629)"><tspan
         sodipodi:role="line"
         id="tspan5684"
         x="-40.06728"
         y="197.19055">___________________________</tspan></text>
  </g>
</svg>
